# xmcd CD database file
#
# Track frame offsets:
#	182
#	14237
#	27782
#	42185
#	56757
#	71432
#	82625
#	94457
#	109355
#	124530
#	139467
#	152360
#	163910
#	178797
#	192507
#	207587
#	222525
#	235542
#	249160
#	260685
#
# Disc length: 3655 seconds
#
# Revision: 0
# Processed by: cddbd v1.5.2PL0 Copyright (c) Steve Scherf et al.
# Submitted via: CDex 1.79
#
DISCID=240e4514
DTITLE=Louis Armstrong - The Maturity (1939-40)
DYEAR=1991
DGENRE=Jazz
TTITLE0=Hear Me Talkin' To Ya
TTITLE1=Save It Pretty Mama
TTITLE2=West End Blues
TTITLE3=Savoy Blues
TTITLE4=Confessin'
TTITLE5=Our Monday Date
TTITLE6=If It's Good
TTITLE7=Baby Won't You Please Come Home
TTITLE8=Shanty Boat On The Mississippi
TTITLE9=You're A Lucky Guy
TTITLE10=Jou're Just A No Account
TTITLE11=Bye And Bye
TTITLE12=Hep Cat's Ball
TTITLE13=Harlem Stomp
TTITLE14=Wolverine Blues
TTITLE15=Lazy 'Sippi Steamer
TTITLE16=Sweethearts On Parade
TTITLE17=You Run Your Mouth, I Run My Business
TTITLE18=Cut Off My Legs And Call Me Shorty
TTITLE19=Cain And Abel
EXTD=YEAR: 1991
EXTT0=
EXTT1=
EXTT2=
EXTT3=
EXTT4=
EXTT5=
EXTT6=
EXTT7=
EXTT8=
EXTT9=
EXTT10=
EXTT11=
EXTT12=
EXTT13=
EXTT14=
EXTT15=
EXTT16=
EXTT17=
EXTT18=
EXTT19=
PLAYORDER=
